<svg width="161" height="161" viewBox="0 0 161 161" fill="none" xmlns="http://www.w3.org/2000/svg">
<rect width="161" height="161" rx="80.5" fill="#1F1B18"/>
<g clip-path="url(#clip0_392_6306)">
<path d="M103.693 84.0231L91.1443 54.0429L61.0993 66.4358C60.7691 66.5234 60.4615 66.6809 60.1974 66.8977C59.9332 67.1145 59.7188 67.3855 59.5686 67.6924C59.4183 67.9993 59.3357 68.3349 59.3265 68.6764C59.3172 69.018 59.3814 69.3576 59.5147 69.6722C59.6481 69.9868 59.8475 70.269 60.0994 70.4999C60.3514 70.7307 60.65 70.9047 60.975 71.0101C61.3 71.1155 61.6439 71.1499 61.9834 71.1108C62.3228 71.0718 62.6499 70.9602 62.9425 70.7838L85.4713 61.5322L68.057 103.707C67.8155 104.292 67.8163 104.948 68.059 105.532C68.3017 106.117 68.7666 106.58 69.3513 106.822C69.936 107.063 70.5926 107.063 71.1768 106.82C71.761 106.577 72.2248 106.112 72.4662 105.528L89.8806 63.3529L99.3191 85.804C99.564 86.3876 100.031 86.8501 100.617 87.0896C101.203 87.3291 101.86 87.326 102.443 87.0811C103.027 86.8362 103.489 86.3694 103.729 85.7835C103.968 85.1976 103.965 84.5406 103.72 83.957L103.693 84.0231Z" fill="white"/>
</g>
<defs>
<clipPath id="clip0_392_6306">
<rect width="85.8667" height="85.8667" fill="white" transform="translate(56.9219 24.4309) rotate(22.4362)"/>
</clipPath>
</defs>
</svg>
