<svg width="26" height="26" viewBox="0 0 26 26" fill="none" xmlns="http://www.w3.org/2000/svg">
<path d="M10.4676 15.096L24.3058 1.25781M10.4676 15.096L14.8706 23.9021C14.9258 24.0225 15.0144 24.1246 15.126 24.1962C15.2375 24.2677 15.3672 24.3058 15.4996 24.3058C15.6321 24.3058 15.7618 24.2677 15.8733 24.1962C15.9848 24.1246 16.0735 24.0225 16.1287 23.9021L24.3058 1.25781M10.4676 15.096L1.66147 10.6929C1.54103 10.6377 1.43896 10.5491 1.36741 10.4376C1.29585 10.3261 1.25781 10.1964 1.25781 10.0639C1.25781 9.93143 1.29585 9.80173 1.36741 9.69023C1.43896 9.57872 1.54103 9.49011 1.66147 9.43491L24.3058 1.25781" stroke="white" stroke-width="2.51603" stroke-linecap="round" stroke-linejoin="round"/>
</svg>
